<?xml version="1.0" standalone="no"?>
<!DOCTYPE svg PUBLIC "-//W3C//DTD SVG 20010904//EN"
 "http://www.w3.org/TR/2001/REC-SVG-20010904/DTD/svg10.dtd">
<svg version="1.0" xmlns="http://www.w3.org/2000/svg"
 width="626.000000pt" height="626.000000pt" viewBox="0 0 626.000000 626.000000"
 preserveAspectRatio="xMidYMid meet">

<g transform="translate(0.000000,626.000000) scale(0.100000,-0.100000)"
fill="#000000" stroke="none">
<path d="M3596 5079 c-38 -4 -103 -15 -145 -25 -148 -32 -381 -125 -381 -150
0 -18 -2 -19 82 19 404 184 817 180 1133 -12 37 -23 72 -38 78 -34 5 3 7 1 4
-5 -4 -5 15 -26 42 -46 65 -48 197 -188 255 -271 113 -162 188 -381 201 -590
15 -234 -47 -508 -154 -687 -59 -97 -84 -179 -79 -258 3 -36 8 -73 13 -82 14
-35 -17 -18 -71 37 l-53 55 -15 -27 c-20 -39 -65 -79 -108 -97 -56 -24 -113
-20 -182 13 -80 38 -130 51 -191 51 -72 0 -103 32 -43 45 97 22 217 239 188
344 -15 56 -41 74 -111 79 -60 4 -61 5 -55 31 4 14 8 78 11 141 3 105 3 109
-6 50 -30 -194 -60 -278 -124 -348 -54 -61 -129 -106 -240 -146 l-100 -36 66
3 c126 5 286 108 345 221 33 63 64 75 130 54 49 -16 66 -48 59 -108 -20 -147
-143 -283 -239 -264 -42 7 -47 -6 -11 -30 36 -24 31 -42 -14 -50 -60 -9 -187
-61 -271 -110 -70 -41 -77 -43 -102 -30 -36 19 -57 18 -174 -7 -119 -25 -262
-22 -334 6 -108 44 -216 139 -260 230 -21 42 -25 64 -24 140 0 84 3 97 47 202
26 62 47 127 47 145 0 18 -7 106 -17 195 -16 153 -16 167 0 260 16 89 76 307
83 300 2 -1 5 -72 8 -157 3 -85 12 -186 21 -225 27 -124 88 -220 166 -260 67
-35 200 -37 277 -5 20 9 33 3 85 -34 59 -41 117 -67 181 -81 l29 -6 -7 -85
c-6 -75 -16 -118 -41 -189 -5 -16 -2 -14 18 7 14 15 30 50 36 78 23 108 8 373
-30 524 -19 78 -21 44 -5 -91 9 -71 16 -146 16 -167 0 -37 -1 -38 -30 -32
-103 20 -206 106 -271 227 -37 68 -40 71 -35 36 3 -21 16 -63 30 -93 14 -31
24 -60 21 -64 -9 -14 -137 -31 -179 -24 -84 14 -150 64 -191 144 -45 89 -56
154 -62 360 -3 107 -9 199 -14 204 -30 33 -99 -156 -134 -371 -16 -95 -16
-113 -1 -243 17 -152 20 -238 8 -257 -11 -17 -200 268 -251 378 -114 244 -95
440 65 665 82 117 227 220 302 215 48 -3 39 12 -22 38 -30 12 -71 37 -92 55
l-39 34 159 -2 c110 -1 160 2 163 10 3 8 -44 13 -159 16 -90 3 -169 3 -175 0
-33 -11 1 -63 70 -107 15 -9 27 -20 27 -24 -1 -3 -24 -17 -53 -30 -75 -36
-202 -166 -252 -261 l-40 -75 -66 -7 c-83 -8 -171 -30 -262 -66 -40 -16 -94
-35 -120 -42 -29 -8 -44 -16 -36 -20 8 -5 1 -14 -22 -25 -136 -70 -339 -245
-432 -372 -25 -35 -47 -57 -49 -51 -3 7 -12 -10 -22 -37 -10 -28 -25 -66 -33
-85 -75 -168 -81 -386 -17 -606 30 -104 33 -167 10 -213 -10 -19 -13 -30 -5
-26 9 6 10 -1 5 -26 -4 -19 -9 -101 -12 -184 -5 -130 -3 -162 15 -237 11 -48
37 -120 56 -159 20 -39 32 -68 26 -64 -19 11 -93 144 -117 208 -28 74 -32 59
-5 -17 23 -65 91 -172 153 -241 69 -76 138 -229 138 -304 0 -47 -20 -100 -57
-148 -30 -41 -32 -44 -8 -23 15 14 39 48 52 75 l24 50 -4 -77 c-5 -89 -20
-120 -75 -146 -48 -22 -51 -47 -16 -113 58 -106 146 -147 289 -134 150 13 138
16 147 -34 4 -25 12 -49 18 -55 16 -16 1900 -15 2280 2 162 6 334 15 383 18
l87 7 0 30 c0 42 -74 512 -121 767 -88 476 -135 605 -270 743 -46 46 -70 77
-60 77 31 1 106 41 143 77 l37 36 39 -35 c43 -38 108 -66 123 -51 5 5 0 26
-13 52 -41 84 -22 190 60 329 83 141 136 321 151 515 31 383 -95 718 -371 983
-255 245 -575 354 -922 313z m-1140 -724 c-49 -128 -48 -275 4 -420 44 -122
69 -170 165 -310 45 -66 91 -136 103 -156 l22 -36 -32 -84 c-43 -115 -45 -228
-7 -309 50 -106 155 -200 275 -247 58 -22 85 -27 174 -27 58 -1 117 3 133 7
44 12 33 -12 -36 -78 -91 -87 -247 -164 -406 -201 -78 -18 -268 -20 -377 -4
-93 14 -233 59 -324 105 -36 18 -85 35 -109 38 -46 6 -91 40 -116 88 -20 37
-28 119 -16 151 19 49 54 63 164 63 l99 0 29 33 c38 43 39 89 2 133 -76 90
-287 175 -383 154 -91 -20 -35 -154 105 -250 30 -21 55 -42 55 -45 0 -4 -13
-10 -30 -13 -63 -13 -90 -119 -55 -218 26 -74 72 -110 155 -124 25 -4 76 -23
113 -42 64 -32 68 -35 53 -51 -39 -44 -60 -115 -60 -202 0 -97 15 -151 50
-179 l24 -19 -34 -73 c-76 -169 -143 -419 -171 -641 l-6 -47 -50 -10 c-64 -14
-173 -14 -222 0 -50 14 -103 61 -133 120 -26 52 -26 50 31 79 48 24 69 79 68
185 0 151 -52 296 -163 460 -59 85 -84 147 -104 255 -22 113 -20 232 6 374 23
132 21 159 -22 316 -28 102 -43 284 -30 364 29 181 120 337 301 511 206 199
522 358 723 364 30 1 37 -2 32 -14z m-506 -1136 c69 -16 175 -76 221 -126 44
-48 47 -77 11 -117 -24 -26 -120 -19 -186 14 -92 46 -196 160 -196 215 0 33
47 37 150 14z m2139 -290 c24 -5 82 -28 130 -51 69 -33 101 -56 163 -118 132
-134 176 -253 262 -710 41 -220 129 -771 123 -776 -6 -6 -712 -32 -1074 -40
-321 -6 -333 -6 -333 12 0 11 5 87 11 170 l12 151 81 23 c115 33 163 55 171
79 3 12 4 25 1 30 -3 4 30 11 73 13 125 7 244 78 214 126 -5 10 -8 34 -5 55 3
25 0 37 -8 37 -9 0 -11 10 -7 30 4 16 2 32 -2 35 -5 3 -7 13 -4 24 5 20 -20
51 -43 51 -10 0 -14 12 -14 40 0 34 -4 41 -25 46 -15 4 -44 -1 -70 -10 -50
-20 -138 -93 -132 -111 3 -6 0 -12 -6 -13 -7 0 -28 -3 -47 -6 -19 -3 -80 -6
-135 -7 l-100 0 -48 53 c-64 71 -288 413 -276 422 2 1 31 10 64 20 33 10 104
40 158 67 93 47 146 79 322 194 215 141 401 197 544 164z m-592 -144 c5 -17
-341 -225 -353 -212 -3 2 17 18 43 35 53 34 112 89 151 141 14 18 35 37 46 42
27 11 109 7 113 -6z m-1045 -315 c11 0 26 -7 34 -15 8 -8 33 -19 54 -25 65
-18 45 -47 -39 -57 -28 -3 -51 -10 -51 -14 0 -5 5 -9 10 -9 6 0 10 -11 10 -24
0 -13 7 -43 15 -66 26 -74 -9 -85 -49 -15 -25 41 -46 58 -46 36 0 -5 11 -33
25 -62 14 -30 21 -57 16 -62 -20 -20 -47 0 -71 50 -14 29 -28 53 -32 53 -13 0
-9 -40 8 -72 11 -22 13 -33 5 -41 -14 -14 -42 12 -56 53 -13 39 -30 34 -30
-10 0 -28 -4 -35 -20 -35 -28 0 -47 46 -53 125 -6 83 17 166 56 208 l28 30 83
-24 c46 -13 92 -24 103 -24z m563 -82 c22 -40 77 -128 123 -196 45 -69 82
-125 82 -126 0 -5 -261 14 -325 24 -96 14 -251 51 -320 77 -36 14 -50 24 -48
37 0 10 -5 37 -13 59 -8 22 -14 50 -14 63 0 20 5 24 30 24 19 0 40 9 55 24 21
21 23 29 15 50 l-9 26 182 3 c100 1 187 3 192 5 6 1 28 -31 50 -70z m-434
-257 c99 -35 230 -64 369 -81 52 -6 133 -22 180 -35 104 -29 249 -48 337 -43
l66 3 18 -107 c10 -59 25 -124 34 -144 8 -20 15 -40 15 -44 0 -9 -87 -41 -170
-64 -46 -12 -310 -66 -325 -66 -3 0 -5 -7 -5 -15 0 -19 14 -19 139 5 58 11
106 18 108 16 2 -1 -1 -45 -7 -97 -5 -52 -10 -125 -10 -163 l0 -69 -621 6
c-476 5 -625 10 -637 19 -22 19 -10 223 22 360 32 138 108 365 150 448 l33 64
84 1 c78 0 85 2 94 23 6 14 16 21 25 18 8 -2 54 -18 101 -35z m1235 -23 c-3
-13 -9 -33 -12 -45 -6 -21 -3 -23 30 -23 40 0 52 -26 14 -32 -12 -2 -23 -9
-26 -17 -3 -10 2 -12 21 -7 14 3 28 2 31 -3 9 -15 -4 -40 -25 -46 -31 -10 -22
-25 16 -25 19 0 35 -3 35 -8 0 -16 -32 -52 -46 -52 -8 0 -14 -4 -14 -10 0 -5
14 -10 30 -10 17 0 30 -4 30 -8 0 -17 -47 -52 -90 -68 -43 -16 -183 -24 -196
-11 -3 3 -15 53 -27 112 l-21 106 65 65 c70 72 119 103 163 104 24 0 27 -3 22
-22z"/>
<path d="M2466 3702 c-4 -7 -1 -34 8 -60 41 -130 50 -287 21 -353 -10 -21 -15
-42 -12 -45 12 -13 27 9 43 63 17 58 14 183 -6 252 -14 50 5 35 32 -25 14 -31
28 -50 31 -42 2 7 12 -13 22 -45 16 -56 16 -94 0 -144 -11 -34 13 -29 26 5 21
53 5 148 -41 239 -48 94 -112 174 -124 155z"/>
<path d="M2218 3485 c-3 -3 3 -35 13 -70 28 -102 34 -192 15 -245 -19 -53 -19
-60 -5 -60 25 0 41 74 36 165 -2 50 -8 98 -12 108 -4 9 -3 17 2 17 5 0 23 -28
39 -61 23 -50 29 -75 29 -130 0 -38 3 -69 7 -69 4 0 12 18 18 40 18 65 -17
168 -89 268 -30 40 -41 48 -53 37z"/>
<path d="M2583 3410 c0 -36 2 -50 4 -32 2 17 2 47 0 65 -2 17 -4 3 -4 -33z"/>
<path d="M2566 3325 c-9 -26 -7 -32 5 -12 6 10 9 21 6 23 -2 3 -7 -2 -11 -11z"/>
<path d="M2529 3091 c-8 -10 -52 -30 -97 -46 -77 -27 -122 -54 -122 -75 0 -5
7 -16 16 -25 20 -19 35 -16 146 27 107 41 125 61 90 96 -10 10 -16 24 -14 30
5 16 0 14 -19 -7z"/>
<path d="M2013 2815 c18 -13 17 -15 -15 -45 l-33 -32 33 26 c19 14 38 26 44
26 6 0 3 9 -7 20 -10 11 -23 20 -29 20 -6 0 -3 -7 7 -15z"/>
<path d="M1934 4244 c-18 -14 -18 -14 6 -3 31 14 36 19 24 19 -6 0 -19 -7 -30
-16z"/>
<path d="M1878 4214 c-38 -20 -36 -28 2 -9 17 9 30 18 30 20 0 7 -1 6 -32 -11z"/>
<path d="M1809 4169 l-24 -20 28 17 c15 9 27 18 27 20 0 8 -8 4 -31 -17z"/>
<path d="M1653 4032 c-65 -65 -128 -137 -141 -160 -32 -57 -21 -53 13 5 16 25
80 97 143 160 64 62 113 113 109 113 -3 0 -59 -53 -124 -118z"/>
<path d="M2916 3444 c-11 -29 -6 -35 52 -62 70 -32 154 -36 196 -9 27 18 27
19 10 38 -14 15 -31 19 -84 19 -37 0 -89 7 -116 15 -27 8 -50 15 -50 15 -1 0
-5 -7 -8 -16z"/>
<path d="M3776 3425 c-13 -65 -40 -117 -87 -162 -23 -24 -37 -43 -30 -43 8 0
33 19 56 43 45 44 80 132 73 179 -3 17 -6 12 -12 -17z"/>
<path d="M1376 2764 c-9 -26 -16 -55 -15 -63 0 -9 9 11 19 44 23 70 19 87 -4
19z"/>
<path d="M1352 2590 c0 -52 3 -106 7 -120 4 -14 6 25 3 85 -5 140 -10 159 -10
35z"/>
</g>
</svg>
